<?xml version="1.0" encoding="utf-8"?>
<!-- Generator: Adobe Illustrator 21.0.0, SVG Export Plug-In . SVG Version: 6.00 Build 0)  -->
<svg version="1.1" xmlns="http://www.w3.org/2000/svg" xmlns:xlink="http://www.w3.org/1999/xlink" x="0px" y="0px"
	 viewBox="0 0 300 300" style="enable-background:new 0 0 300 300;" xml:space="preserve">
<style type="text/css">
	.st0{fill:#FA671E;}
	.st1{fill:#F9D946;}
	.st2{fill:#6EA7CE;}
	.st3{fill:#97CF3B;}
	.st4{fill:#FFFFFF;}
</style>
<g id="Layer_1">
</g>
<g id="Layer_2">
	<path class="st0" d="M120.3,140.7H26c-11.4,0-20.7-9.3-20.7-20.7V25.7C5.3,14.3,14.6,5,26,5h94.3c11.4,0,20.7,9.3,20.7,20.7V120
		C141,131.4,131.7,140.7,120.3,140.7z"/>
	<path class="st1" d="M274.7,140.7h-94.3c-11.4,0-20.7-9.3-20.7-20.7V25.7c0-11.4,9.3-20.7,20.7-20.7h94.3
		c11.4,0,20.7,9.3,20.7,20.7V120C295.3,131.4,286.1,140.7,274.7,140.7z"/>
	<path class="st2" d="M120.3,297H26c-11.4,0-20.7-9.3-20.7-20.7V182c0-11.4,9.3-20.7,20.7-20.7h94.3c11.4,0,20.7,9.3,20.7,20.7v94.3
		C141,287.7,131.7,297,120.3,297z"/>
	<path class="st3" d="M274.7,297h-94.3c-11.4,0-20.7-9.3-20.7-20.7V182c0-11.4,9.3-20.7,20.7-20.7h94.3c11.4,0,20.7,9.3,20.7,20.7
		v94.3C295.3,287.7,286.1,297,274.7,297z"/>
	<g id="M">
		<path class="st4" d="M74.2,91.2h0.3l21.6-62.1h22v84.2h-16.9V55.8l-0.3-0.1l-20.8,57.5H68.7L47.9,55.7l-0.3,0.1v57.6H30.7V29.1
			h22.2L74.2,91.2z"/>
	</g>
	<g id="A">
		<path class="st4" d="M242.1,95.2h-27.3l-5.7,18.2h-17.6l28.4-84.2h17.3l28.3,84.2h-17.6L242.1,95.2z M218.9,81.9h19l-9.3-29.7
			h-0.3L218.9,81.9z"/>
	</g>
	<g id="T">
		<path class="st4" d="M106.9,200.6H82.8v71.2H65.9v-71.2H42.2v-13h64.7V200.6z"/>
	</g>
	<g id="H">
		<path class="st4" d="M177.1,262.6l-0.1-16.7l44.3-0.3l-0.2-34l-44.3,0.3l-0.1-16.7l106.7-0.7l0.1,16.7l-45.9,0.3l0.2,34l45.9-0.3
			l0.1,16.7L177.1,262.6z"/>
	</g>
</g>
</svg>
